<svg width="16" height="16" viewBox="0 0 16 16" fill="none" xmlns="http://www.w3.org/2000/svg">
<mask id="mask0_2004_61" style="mask-type:alpha" maskUnits="userSpaceOnUse" x="0" y="0" width="16" height="16">
<path d="M6.79588 2.13919C7.16654 1.1113 7.35187 0.597359 7.62356 0.45248C7.85883 0.327027 8.14113 0.327027 8.3764 0.45248C8.6481 0.597359 8.83343 1.1113 9.20409 2.13919L10.2143 4.94072C10.2675 5.08826 10.2941 5.16203 10.3409 5.21718C10.3823 5.2659 10.4348 5.304 10.4939 5.32829C10.5608 5.35578 10.6392 5.35828 10.7959 5.36329L13.7725 5.45836C14.8647 5.49325 15.4107 5.51069 15.6325 5.72432C15.8245 5.9093 15.9117 6.17779 15.8651 6.44031C15.8113 6.74348 15.3798 7.07855 14.5167 7.74871L12.1645 9.57522C12.0406 9.67141 11.9787 9.71951 11.9407 9.78108C11.9071 9.83548 11.8871 9.89713 11.8823 9.96086C11.8768 10.033 11.8986 10.1083 11.9423 10.259L12.7717 13.1192C13.076 14.1687 13.2282 14.6934 13.0935 14.9703C12.9769 15.2101 12.7485 15.376 12.4845 15.4128C12.1795 15.4553 11.7275 15.1485 10.8234 14.5347L8.35944 12.8621C8.22968 12.774 8.16479 12.7299 8.0945 12.7128C8.03239 12.6977 7.96757 12.6977 7.90546 12.7128C7.83517 12.7299 7.77029 12.774 7.64052 12.8621L5.17652 14.5347C4.27248 15.1485 3.82045 15.4553 3.51549 15.4128C3.25141 15.376 3.02303 15.2101 2.90643 14.9703C2.77178 14.6934 2.92394 14.1687 3.22824 13.1192L4.05764 10.259C4.10132 10.1083 4.12316 10.033 4.11769 9.96086C4.11287 9.89713 4.09284 9.83548 4.05928 9.78108C4.0213 9.71951 3.95936 9.67141 3.83548 9.57522L1.48325 7.7487C0.620211 7.07855 0.188692 6.74348 0.134862 6.44031C0.088251 6.17779 0.175488 5.9093 0.367502 5.72432C0.589249 5.51069 1.13531 5.49325 2.22743 5.45836L5.20402 5.36329C5.36078 5.35828 5.43916 5.35578 5.50608 5.32829C5.5652 5.304 5.61764 5.2659 5.65901 5.21718C5.70583 5.16203 5.73243 5.08826 5.78564 4.94072L6.79588 2.13919Z" fill="#FDE85A"/>
</mask>
<g mask="url(#mask0_2004_61)">
<g filter="url(#filter0_iii_2004_61)">
<path d="M6.79588 2.13919C7.16654 1.1113 7.35187 0.597359 7.62356 0.45248C7.85883 0.327027 8.14113 0.327027 8.3764 0.45248C8.6481 0.597359 8.83343 1.1113 9.20409 2.13919L10.2143 4.94072C10.2675 5.08826 10.2941 5.16203 10.3409 5.21718C10.3823 5.2659 10.4348 5.304 10.4939 5.32829C10.5608 5.35578 10.6392 5.35828 10.7959 5.36329L13.7725 5.45836C14.8647 5.49325 15.4107 5.51069 15.6325 5.72432C15.8245 5.9093 15.9117 6.17779 15.8651 6.44031C15.8113 6.74348 15.3798 7.07855 14.5167 7.74871L12.1645 9.57522C12.0406 9.67141 11.9787 9.71951 11.9407 9.78108C11.9071 9.83548 11.8871 9.89713 11.8823 9.96086C11.8768 10.033 11.8986 10.1083 11.9423 10.259L12.7717 13.1192C13.076 14.1687 13.2282 14.6934 13.0935 14.9703C12.9769 15.2101 12.7485 15.376 12.4845 15.4128C12.1795 15.4553 11.7275 15.1485 10.8234 14.5347L8.35944 12.8621C8.22968 12.774 8.16479 12.7299 8.0945 12.7128C8.03239 12.6977 7.96757 12.6977 7.90546 12.7128C7.83517 12.7299 7.77029 12.774 7.64052 12.8621L5.17652 14.5347C4.27248 15.1485 3.82045 15.4553 3.51549 15.4128C3.25141 15.376 3.02303 15.2101 2.90643 14.9703C2.77178 14.6934 2.92394 14.1687 3.22824 13.1192L4.05764 10.259C4.10132 10.1083 4.12316 10.033 4.11769 9.96086C4.11287 9.89713 4.09284 9.83548 4.05928 9.78108C4.0213 9.71951 3.95936 9.67141 3.83548 9.57522L1.48325 7.7487C0.620211 7.07855 0.188692 6.74348 0.134862 6.44031C0.088251 6.17779 0.175488 5.9093 0.367502 5.72432C0.589249 5.51069 1.13531 5.49325 2.22743 5.45836L5.20402 5.36329C5.36078 5.35828 5.43916 5.35578 5.50608 5.32829C5.5652 5.304 5.61764 5.2659 5.65901 5.21718C5.70583 5.16203 5.73243 5.08826 5.78564 4.94072L6.79588 2.13919Z" fill="#C87643"/>
</g>
<g style="mix-blend-mode:multiply" opacity="0.7" filter="url(#filter1_f_2004_61)">
<path fill-rule="evenodd" clip-rule="evenodd" d="M4.28641 9.80005H2.72237L0.599945 18.2L7.99995 13.9268L15.3999 18.2L13.2775 9.80005H11.7133C11.8018 10.9839 11.8295 11.6002 11.5929 11.9487C11.371 12.2755 11.0126 12.4837 10.6188 12.5145C10.1661 12.55 9.59518 12.1645 8.45336 11.3933L7.99983 11.087L7.54631 11.3933C6.40448 12.1645 5.83357 12.55 5.38082 12.5145C4.98703 12.4837 4.62862 12.2755 4.40677 11.9487C4.17018 11.6002 4.19791 10.9839 4.28641 9.80005Z" fill="url(#paint0_linear_2004_61)"/>
</g>
<mask id="mask1_2004_61" style="mask-type:alpha" maskUnits="userSpaceOnUse" x="1" y="1" width="14" height="10">
<path d="M9.77857 5.34577L8.60217 2.0747L8.60217 2.07469C8.41685 1.55941 8.32419 1.30176 8.18826 1.22922C8.07057 1.16641 7.9293 1.16641 7.8116 1.22922C7.67568 1.30176 7.58302 1.55941 7.3977 2.07471L6.22129 5.34577C6.16817 5.49347 6.14161 5.56732 6.0948 5.62253C6.05343 5.67132 6.00097 5.70947 5.94182 5.73379C5.87487 5.76132 5.79643 5.76383 5.63954 5.76885H5.63954L2.17 5.87997C1.60842 5.89796 1.32763 5.90695 1.21724 6.01164C1.12057 6.10333 1.07657 6.23296 1.09744 6.36455C1.12128 6.51481 1.33948 6.69364 1.77587 7.05128C3.61316 8.55702 5.59973 10.1001 7.99993 10.1001C10.4001 10.1001 12.3867 8.55702 14.224 7.05128C14.6604 6.69364 14.8786 6.51481 14.9024 6.36455C14.9233 6.23296 14.8793 6.10333 14.7826 6.01164C14.6722 5.90695 14.3914 5.89796 13.8299 5.87997L10.3603 5.76885C10.2034 5.76383 10.125 5.76132 10.0581 5.73379C9.9989 5.70947 9.94644 5.67132 9.90507 5.62253C9.85825 5.56732 9.83169 5.49347 9.77857 5.34577Z" fill="url(#paint1_linear_2004_61)"/>
</mask>
<g mask="url(#mask1_2004_61)">
<path d="M10.0825 4.67432L8.60209 0.569456L8.60208 0.569449C8.41676 0.0555805 8.32409 -0.201354 8.18825 -0.273788C8.07062 -0.33651 7.92947 -0.33651 7.81184 -0.273788C7.676 -0.201354 7.58333 0.055583 7.398 0.569457L5.91757 4.67432C5.86436 4.82185 5.83775 4.89562 5.79094 4.95076C5.74957 4.99948 5.69712 5.03758 5.638 5.06187C5.57109 5.08935 5.49271 5.09186 5.33596 5.09686H5.33595L0.974147 5.23616C0.414102 5.25405 0.134079 5.26299 0.023675 5.3677C-0.073057 5.45944 -0.117026 5.58898 -0.0961234 5.72065C-0.0722659 5.87093 0.145728 6.04952 0.581716 6.40669C2.76827 8.198 5.12851 10.1001 8.00004 10.1001C10.8716 10.1001 13.2318 8.198 15.4184 6.40669C15.8544 6.04952 16.0724 5.87093 16.0962 5.72065C16.1171 5.58898 16.0731 5.45944 15.9764 5.3677C15.866 5.26299 15.586 5.25405 15.0259 5.23616L10.6641 5.09686C10.5074 5.09186 10.429 5.08935 10.3621 5.06187C10.303 5.03758 10.2505 4.99948 10.2092 4.95076C10.1623 4.89562 10.1357 4.82185 10.0825 4.67432Z" fill="#FFFFF1"/>
</g>
</g>
<defs>
<filter id="filter0_iii_2004_61" x="0.122528" y="-0.541602" width="15.7549" height="16.3583" filterUnits="userSpaceOnUse" color-interpolation-filters="sRGB">
<feFlood flood-opacity="0" result="BackgroundImageFix"/>
<feBlend mode="normal" in="SourceGraphic" in2="BackgroundImageFix" result="shape"/>
<feColorMatrix in="SourceAlpha" type="matrix" values="0 0 0 0 0 0 0 0 0 0 0 0 0 0 0 0 0 0 127 0" result="hardAlpha"/>
<feOffset dy="-0.9"/>
<feGaussianBlur stdDeviation="0.5"/>
<feComposite in2="hardAlpha" operator="arithmetic" k2="-1" k3="1"/>
<feColorMatrix type="matrix" values="0 0 0 0 0.65098 0 0 0 0 0.403922 0 0 0 0 0.027451 0 0 0 0.55 0"/>
<feBlend mode="multiply" in2="shape" result="effect1_innerShadow_2004_61"/>
<feColorMatrix in="SourceAlpha" type="matrix" values="0 0 0 0 0 0 0 0 0 0 0 0 0 0 0 0 0 0 127 0" result="hardAlpha"/>
<feOffset dy="-0.4"/>
<feGaussianBlur stdDeviation="0.2"/>
<feComposite in2="hardAlpha" operator="arithmetic" k2="-1" k3="1"/>
<feColorMatrix type="matrix" values="0 0 0 0 0.858824 0 0 0 0 0.745098 0 0 0 0 0.329412 0 0 0 1 0"/>
<feBlend mode="lighten" in2="effect1_innerShadow_2004_61" result="effect2_innerShadow_2004_61"/>
<feColorMatrix in="SourceAlpha" type="matrix" values="0 0 0 0 0 0 0 0 0 0 0 0 0 0 0 0 0 0 127 0" result="hardAlpha"/>
<feOffset dy="0.4"/>
<feGaussianBlur stdDeviation="0.3"/>
<feComposite in2="hardAlpha" operator="arithmetic" k2="-1" k3="1"/>
<feColorMatrix type="matrix" values="0 0 0 0 1 0 0 0 0 0.643137 0 0 0 0 0.129412 0 0 0 0.75 0"/>
<feBlend mode="normal" in2="effect2_innerShadow_2004_61" result="effect3_innerShadow_2004_61"/>
</filter>
<filter id="filter1_f_2004_61" x="-0.800055" y="8.40005" width="17.6" height="11.1999" filterUnits="userSpaceOnUse" color-interpolation-filters="sRGB">
<feFlood flood-opacity="0" result="BackgroundImageFix"/>
<feBlend mode="normal" in="SourceGraphic" in2="BackgroundImageFix" result="shape"/>
<feGaussianBlur stdDeviation="0.7" result="effect1_foregroundBlur_2004_61"/>
</filter>
<linearGradient id="paint0_linear_2004_61" x1="7.99995" y1="9.80005" x2="7.99995" y2="18.2" gradientUnits="userSpaceOnUse">
<stop stop-color="#AC5701"/>
<stop offset="1" stop-color="#461E01"/>
</linearGradient>
<linearGradient id="paint1_linear_2004_61" x1="7.99993" y1="0.400146" x2="7.99993" y2="14.1001" gradientUnits="userSpaceOnUse">
<stop offset="0.364964" stop-color="#FFFFE8"/>
<stop offset="0.833333" stop-color="#FFFFE8" stop-opacity="0"/>
</linearGradient>
</defs>
</svg>
