<svg width="16" height="16" viewBox="0 0 16 16" fill="none" xmlns="http://www.w3.org/2000/svg">
<mask id="mask0_2004_1229" style="mask-type:alpha" maskUnits="userSpaceOnUse" x="0" y="1" width="16" height="15">
<path d="M6.87107 3.00545C7.21856 2.0418 7.39231 1.55998 7.64702 1.42415C7.86759 1.30654 8.13225 1.30654 8.35281 1.42415C8.60752 1.55998 8.78127 2.0418 9.12876 3.00545L10.0759 5.63188C10.1257 5.7702 10.1507 5.83936 10.1946 5.89106C10.2334 5.93674 10.2825 5.97246 10.338 5.99523C10.4007 6.021 10.4742 6.02334 10.6211 6.02804L13.4117 6.11717C14.4355 6.14987 14.9475 6.16622 15.1554 6.3665C15.3354 6.53992 15.4172 6.79163 15.3735 7.03774C15.323 7.32196 14.9184 7.6361 14.1093 8.26437L11.9041 9.97672C11.788 10.0669 11.7299 10.112 11.6943 10.1697C11.6629 10.2207 11.6441 10.2785 11.6396 10.3383C11.6344 10.4059 11.6549 10.4765 11.6959 10.6177L12.4734 13.2992C12.7587 14.2831 12.9014 14.775 12.7751 15.0346C12.6658 15.2594 12.4517 15.415 12.2041 15.4495C11.9182 15.4893 11.4944 15.2016 10.6469 14.6263L8.33691 13.0581C8.21525 12.9756 8.15443 12.9343 8.08853 12.9182C8.0303 12.9041 7.96953 12.9041 7.9113 12.9182C7.84541 12.9343 7.78458 12.9756 7.66292 13.0581L5.35293 14.6263C4.50538 15.2016 4.08161 15.4893 3.7957 15.4495C3.54814 15.415 3.33402 15.2594 3.22471 15.0346C3.09848 14.775 3.24112 14.2831 3.52641 13.2992L4.30397 10.6177C4.34492 10.4765 4.3654 10.4059 4.36027 10.3383C4.35575 10.2785 4.33697 10.2207 4.30551 10.1697C4.2699 10.112 4.21183 10.0669 4.0957 9.97672L1.89049 8.26437C1.08138 7.6361 0.676833 7.32196 0.626369 7.03774C0.58267 6.79163 0.664455 6.53992 0.844468 6.3665C1.05236 6.16622 1.56429 6.14987 2.58815 6.11717L5.3787 6.02804C5.52567 6.02334 5.59915 6.021 5.66188 5.99523C5.71731 5.97246 5.76648 5.93674 5.80526 5.89106C5.84915 5.83936 5.87409 5.7702 5.92397 5.63188L6.87107 3.00545Z" fill="#FDE85A"/>
</mask>
<g mask="url(#mask0_2004_1229)">
<g filter="url(#filter0_iii_2004_1229)">
<path d="M6.87107 3.00545C7.21856 2.0418 7.39231 1.55998 7.64702 1.42415C7.86759 1.30654 8.13225 1.30654 8.35281 1.42415C8.60752 1.55998 8.78127 2.0418 9.12876 3.00545L10.0759 5.63188C10.1257 5.7702 10.1507 5.83936 10.1946 5.89106C10.2334 5.93674 10.2825 5.97246 10.338 5.99523C10.4007 6.021 10.4742 6.02334 10.6211 6.02804L13.4117 6.11717C14.4355 6.14987 14.9475 6.16622 15.1554 6.3665C15.3354 6.53992 15.4172 6.79163 15.3735 7.03774C15.323 7.32196 14.9184 7.6361 14.1093 8.26437L11.9041 9.97672C11.788 10.0669 11.7299 10.112 11.6943 10.1697C11.6629 10.2207 11.6441 10.2785 11.6396 10.3383C11.6344 10.4059 11.6549 10.4765 11.6959 10.6177L12.4734 13.2992C12.7587 14.2831 12.9014 14.775 12.7751 15.0346C12.6658 15.2594 12.4517 15.415 12.2041 15.4495C11.9182 15.4893 11.4944 15.2016 10.6469 14.6263L8.33691 13.0581C8.21525 12.9756 8.15443 12.9343 8.08853 12.9182C8.0303 12.9041 7.96953 12.9041 7.9113 12.9182C7.84541 12.9343 7.78458 12.9756 7.66292 13.0581L5.35293 14.6263C4.50538 15.2016 4.08161 15.4893 3.7957 15.4495C3.54814 15.415 3.33402 15.2594 3.22471 15.0346C3.09848 14.775 3.24112 14.2831 3.52641 13.2992L4.30397 10.6177C4.34492 10.4765 4.3654 10.4059 4.36027 10.3383C4.35575 10.2785 4.33697 10.2207 4.30551 10.1697C4.2699 10.112 4.21183 10.0669 4.0957 9.97672L1.89049 8.26437C1.08138 7.6361 0.676833 7.32196 0.626369 7.03774C0.58267 6.79163 0.664455 6.53992 0.844468 6.3665C1.05236 6.16622 1.56429 6.14987 2.58815 6.11717L5.3787 6.02804C5.52567 6.02334 5.59915 6.021 5.66188 5.99523C5.71731 5.97246 5.76648 5.93674 5.80526 5.89106C5.84915 5.83936 5.87409 5.7702 5.92397 5.63188L6.87107 3.00545Z" fill="#5AFDF5"/>
</g>
<g style="mix-blend-mode:multiply" opacity="0.7" filter="url(#filter1_f_2004_1229)">
<path fill-rule="evenodd" clip-rule="evenodd" d="M4.51861 10.1875H3.05221L1.06244 18.0625L7.99994 14.0564L14.9374 18.0625L12.9477 10.1875H11.4813C11.5643 11.2974 11.5903 11.8751 11.3684 12.2018C11.1605 12.5082 10.8245 12.7034 10.4553 12.7323C10.0308 12.7656 9.49559 12.4041 8.42514 11.6812L8.42513 11.6812L7.99995 11.394L7.57477 11.6812C6.50431 12.4041 5.96908 12.7656 5.54462 12.7323C5.17544 12.7034 4.83944 12.5082 4.63145 12.2018C4.40965 11.8751 4.43564 11.2974 4.51861 10.1875Z" fill="#0D6FA0"/>
</g>
<mask id="mask1_2004_1229" style="mask-type:alpha" maskUnits="userSpaceOnUse" x="1" y="2" width="14" height="9">
<path d="M9.66742 6.01152L8.56454 2.9449C8.3908 2.46181 8.30393 2.22027 8.1765 2.15226C8.06616 2.09337 7.93372 2.09337 7.82338 2.15226C7.69595 2.22027 7.60908 2.46181 7.43534 2.9449L6.33246 6.01152L6.33246 6.01153C6.28266 6.14999 6.25776 6.21923 6.21387 6.27099C6.17509 6.31672 6.12591 6.35249 6.07045 6.37529C6.00769 6.4011 5.93415 6.40345 5.78708 6.40816H5.78707L2.53437 6.51234C2.0079 6.5292 1.74466 6.53763 1.64117 6.63578C1.55054 6.72173 1.50928 6.84326 1.52885 6.96663C1.5512 7.1075 1.75576 7.27515 2.16488 7.61044C3.88733 9.02207 5.74975 10.4688 7.99994 10.4688C10.2501 10.4688 12.1125 9.02207 13.835 7.61044C14.2441 7.27515 14.4487 7.1075 14.471 6.96663C14.4906 6.84326 14.4493 6.72173 14.3587 6.63578C14.2552 6.53763 13.992 6.5292 13.4655 6.51234L10.2128 6.40816C10.0657 6.40345 9.99219 6.4011 9.92942 6.37529C9.87397 6.35249 9.82478 6.31672 9.78601 6.27099C9.74212 6.21923 9.71721 6.14999 9.66742 6.01152Z" fill="url(#paint0_linear_2004_1229)"/>
</mask>
<g mask="url(#mask1_2004_1229)">
<path d="M9.95226 5.38204L8.56435 1.53373C8.39061 1.05197 8.30373 0.811093 8.17638 0.743186C8.0661 0.684385 7.93378 0.684385 7.8235 0.743186C7.69615 0.811093 7.60927 1.05197 7.43552 1.53373L6.04762 5.38204L6.04762 5.38204C5.99773 5.52035 5.97279 5.58951 5.9289 5.6412C5.89012 5.68688 5.84095 5.7226 5.78552 5.74536C5.72279 5.77113 5.64932 5.77348 5.50236 5.77817H5.50236L1.41316 5.90877C0.888119 5.92553 0.625598 5.93392 0.522094 6.03208C0.431408 6.11809 0.390187 6.23953 0.409783 6.36297C0.43215 6.50385 0.636519 6.67128 1.04526 7.00614C3.09515 8.68549 5.30788 10.4688 7.99994 10.4688C10.692 10.4688 12.9047 8.68549 14.9546 7.00614C15.3634 6.67128 15.5677 6.50385 15.5901 6.36297C15.6097 6.23953 15.5685 6.11809 15.4778 6.03208C15.3743 5.93392 15.1118 5.92553 14.5867 5.90877L10.4975 5.77817C10.3506 5.77348 10.2771 5.77113 10.2144 5.74536C10.1589 5.7226 10.1098 5.68688 10.071 5.6412C10.0271 5.58951 10.0021 5.52035 9.95226 5.38204Z" fill="#FFFFF1"/>
</g>
</g>
<defs>
<filter id="filter0_iii_2004_1229" x="0.614807" y="0.492188" width="14.7702" height="15.3359" filterUnits="userSpaceOnUse" color-interpolation-filters="sRGB">
<feFlood flood-opacity="0" result="BackgroundImageFix"/>
<feBlend mode="normal" in="SourceGraphic" in2="BackgroundImageFix" result="shape"/>
<feColorMatrix in="SourceAlpha" type="matrix" values="0 0 0 0 0 0 0 0 0 0 0 0 0 0 0 0 0 0 127 0" result="hardAlpha"/>
<feOffset dy="-0.84375"/>
<feGaussianBlur stdDeviation="0.46875"/>
<feComposite in2="hardAlpha" operator="arithmetic" k2="-1" k3="1"/>
<feColorMatrix type="matrix" values="0 0 0 0 0.65098 0 0 0 0 0.403922 0 0 0 0 0.027451 0 0 0 0.55 0"/>
<feBlend mode="multiply" in2="shape" result="effect1_innerShadow_2004_1229"/>
<feColorMatrix in="SourceAlpha" type="matrix" values="0 0 0 0 0 0 0 0 0 0 0 0 0 0 0 0 0 0 127 0" result="hardAlpha"/>
<feOffset dy="-0.375"/>
<feGaussianBlur stdDeviation="0.1875"/>
<feComposite in2="hardAlpha" operator="arithmetic" k2="-1" k3="1"/>
<feColorMatrix type="matrix" values="0 0 0 0 0.858824 0 0 0 0 0.745098 0 0 0 0 0.329412 0 0 0 1 0"/>
<feBlend mode="lighten" in2="effect1_innerShadow_2004_1229" result="effect2_innerShadow_2004_1229"/>
<feColorMatrix in="SourceAlpha" type="matrix" values="0 0 0 0 0 0 0 0 0 0 0 0 0 0 0 0 0 0 127 0" result="hardAlpha"/>
<feOffset dy="0.375"/>
<feGaussianBlur stdDeviation="0.28125"/>
<feComposite in2="hardAlpha" operator="arithmetic" k2="-1" k3="1"/>
<feColorMatrix type="matrix" values="0 0 0 0 1 0 0 0 0 0.643137 0 0 0 0 0.129412 0 0 0 0.75 0"/>
<feBlend mode="normal" in2="effect2_innerShadow_2004_1229" result="effect3_innerShadow_2004_1229"/>
</filter>
<filter id="filter1_f_2004_1229" x="-0.250061" y="8.875" width="16.5" height="10.5" filterUnits="userSpaceOnUse" color-interpolation-filters="sRGB">
<feFlood flood-opacity="0" result="BackgroundImageFix"/>
<feBlend mode="normal" in="SourceGraphic" in2="BackgroundImageFix" result="shape"/>
<feGaussianBlur stdDeviation="0.65625" result="effect1_foregroundBlur_2004_1229"/>
</filter>
<linearGradient id="paint0_linear_2004_1229" x1="7.99994" y1="1.375" x2="7.99994" y2="14.2187" gradientUnits="userSpaceOnUse">
<stop offset="0.364964" stop-color="#FFFFE8"/>
<stop offset="0.833333" stop-color="#FFFFE8" stop-opacity="0"/>
</linearGradient>
</defs>
</svg>
