<svg width="36" height="36" viewBox="0 0 36 36" fill="none" xmlns="http://www.w3.org/2000/svg">
<rect width="36" height="36" rx="3.98935" fill="#FECF0A"/>
<path d="M24.5197 26.7599C24.5197 27.7812 24.5197 28.2919 24.8203 28.6223C24.8448 28.6492 24.8706 28.6749 24.8975 28.6994C25.2279 29 25.7386 29 26.7599 29C27.7812 29 28.2919 29 28.6223 28.6994C28.6492 28.6749 28.6749 28.6492 28.6994 28.6223C29 28.2919 29 27.7812 29 26.7599V18C29 16.9787 29 16.468 28.6994 16.1376C28.6749 16.1107 28.6492 16.0849 28.6223 16.0604C28.2919 15.7599 27.7756 15.7599 26.743 15.7599C25.743 15.7599 25.2429 15.7599 24.9171 15.4768C24.8764 15.4414 24.8382 15.4032 24.8029 15.3625C24.5197 15.0367 24.5197 14.5422 24.5197 13.5532V13.4863C24.5197 12.5617 24.5197 12.0994 24.2702 11.7843C24.2149 11.7145 24.1518 11.6514 24.082 11.5961C23.7669 11.3465 23.3046 11.3465 22.3799 11.3465C21.4553 11.3465 20.993 11.3465 20.6779 11.5961C20.6081 11.6514 20.545 11.7145 20.4897 11.7843C20.2401 12.0994 20.2401 12.5617 20.2401 13.4863V13.5532C20.2401 14.5422 20.2401 15.0367 19.957 15.3625C19.9216 15.4032 19.8834 15.4414 19.8427 15.4768C19.5169 15.7599 19.0224 15.7599 18.0334 15.7599H17.9665C16.9775 15.7599 16.483 15.7599 16.1572 15.4768C16.1165 15.4414 16.0783 15.4032 16.043 15.3625C15.7599 15.0367 15.7599 14.5422 15.7599 13.5532V13.4863C15.7599 12.5617 15.7599 12.0994 15.5103 11.7843C15.455 11.7145 15.3918 11.6514 15.3221 11.5961C15.007 11.3465 14.5447 11.3465 13.6201 11.3465C12.6954 11.3465 12.2331 11.3465 11.918 11.0969C11.8483 11.0417 11.7851 10.9785 11.7298 10.9087C11.4803 10.5936 11.4803 10.1258 11.4803 9.19011C11.4803 8.22209 11.4803 7.73808 11.2141 7.41737C11.1685 7.36238 11.1179 7.31175 11.0629 7.26612C10.7422 7 10.2638 7 9.307 7H9.24013C8.2188 7 7.70814 7 7.37773 7.30057C7.35081 7.32506 7.32506 7.35081 7.30057 7.37773C7 7.70814 7 8.2188 7 9.24013L7 26.7599C7 27.7812 7 28.2918 7.30056 28.6223C7.32505 28.6492 7.35081 28.6749 7.37774 28.6994C7.70815 29 8.2188 29 9.2401 29C10.2614 29 10.7721 29 11.1025 28.6994C11.1294 28.6749 11.1552 28.6492 11.1797 28.6223C11.4802 28.2918 11.4802 27.7812 11.4802 26.7599V17.9666C11.4802 17.0419 11.4802 16.5796 11.7298 16.2645C11.7851 16.1947 11.8482 16.1316 11.918 16.0763C12.2331 15.8267 12.6954 15.8267 13.62 15.8267C14.5447 15.8267 15.007 15.8267 15.3221 16.0763C15.3919 16.1316 15.455 16.1947 15.5103 16.2645C15.7599 16.5796 15.7599 17.0419 15.7599 17.9666V18.0334C15.7599 19.0224 15.7599 19.5169 16.043 19.8428C16.0783 19.8835 16.1165 19.9216 16.1572 19.957C16.483 20.2401 16.9775 20.2401 17.9665 20.2401H18.0334C19.0224 20.2401 19.5169 20.2401 19.8427 19.957C19.8834 19.9216 19.9216 19.8835 19.957 19.8428C20.2401 19.5169 20.2401 19.0224 20.2401 18.0334V17.9666C20.2401 17.0419 20.2401 16.5796 20.4897 16.2645C20.545 16.1947 20.6081 16.1316 20.6779 16.0763C20.993 15.8267 21.4553 15.8267 22.3799 15.8267C23.3046 15.8267 23.7669 15.8267 24.082 16.0763C24.1518 16.1316 24.2149 16.1947 24.2702 16.2645C24.5197 16.5796 24.5197 17.0419 24.5197 17.9666V26.7599Z" fill="#1C1C1E" stroke="#1C1C1E" stroke-width="0.0185101"/>
</svg>
